<?xml version="1.0" encoding="UTF-8" standalone="no"?><!DOCTYPE svg PUBLIC "-//W3C//DTD SVG 1.1//EN" "http://www.w3.org/Graphics/SVG/1.1/DTD/svg11.dtd"><svg width="100%" height="100%" viewBox="0 0 1000 1000" version="1.1" xmlns="http://www.w3.org/2000/svg" xmlns:xlink="http://www.w3.org/1999/xlink" xml:space="preserve" xmlns:serif="http://www.serif.com/" style="fill-rule:evenodd;clip-rule:evenodd;stroke-linecap:round;stroke-linejoin:round;stroke-miterlimit:1.5;"><rect id="Artboard1" x="0" y="0" width="1000" height="1000" style="fill:none;"/><clipPath id="_clip1"><rect x="0" y="0" width="1000" height="1000"/></clipPath><g clip-path="url(#_clip1)"><g id="Layer1"><path d="M1000,250l0,500c0,137.979 -112.021,250 -250,250l-500,0c-137.979,0 -250,-112.021 -250,-250l0,-500c0,-137.979 112.021,-250 250,-250l500,0c137.979,0 250,112.021 250,250Zm-13,0c0,-130.804 -106.196,-237 -237,-237l-500,0c-130.804,0 -237,106.196 -237,237l0,500c0,130.804 106.196,237 237,237l500,0c130.804,0 237,-106.196 237,-237l0,-500Z" style="fill:#333;"/></g><path d="M351.35,263.257l-0,55.253c-26.96,-22.555 -54.854,-33.833 -83.682,-33.833c-31.764,0 -58.524,11.412 -80.278,34.234c-21.888,22.689 -32.832,50.449 -32.832,83.281c-0,32.432 10.944,59.792 32.832,82.08c21.888,22.289 48.714,33.433 80.478,33.433c16.416,-0 30.363,-2.669 41.841,-8.008c6.406,-2.669 13.046,-6.273 19.919,-10.811c6.874,-4.537 14.114,-10.009 21.722,-16.416l-0,56.255c-26.693,15.082 -54.72,22.622 -84.082,22.622c-44.177,0 -81.88,-15.415 -113.111,-46.245c-31.097,-31.097 -46.645,-68.6 -46.645,-112.51c-0,-39.371 13.012,-74.472 39.038,-105.302c32.031,-37.77 73.472,-56.656 124.321,-56.656c27.761,0 54.587,7.541 80.479,22.623Z" style="fill:#333;fill-rule:nonzero;"/><path d="M584.978,292.685l-37.837,22.422c-7.074,-12.279 -13.814,-20.286 -20.22,-24.023c-6.673,-4.271 -15.282,-6.407 -25.825,-6.407c-12.946,0 -23.69,3.671 -32.232,11.011c-8.541,7.207 -12.812,16.283 -12.812,27.227c-0,15.081 11.211,27.226 33.633,36.435l30.83,12.613c25.091,10.143 43.442,22.522 55.053,37.136c11.612,14.614 17.417,32.532 17.417,53.752c0,28.428 -9.475,51.918 -28.427,70.469c-19.086,18.685 -42.775,28.027 -71.07,28.027c-26.826,0 -48.981,-7.941 -66.464,-23.823c-17.217,-15.882 -27.961,-38.237 -32.232,-67.065l47.246,-10.41c2.136,18.151 5.873,30.696 11.211,37.636c9.609,13.347 23.623,20.02 42.041,20.02c14.548,-0 26.626,-4.872 36.235,-14.614c9.61,-9.743 14.415,-22.089 14.415,-37.037c-0,-6.005 -0.835,-11.511 -2.503,-16.516c-1.668,-5.005 -4.271,-9.609 -7.808,-13.813c-3.536,-4.204 -8.107,-8.141 -13.713,-11.812c-5.605,-3.67 -12.279,-7.173 -20.019,-10.51l-29.83,-12.412c-42.307,-17.884 -63.461,-44.043 -63.461,-78.477c-0,-23.222 8.875,-42.641 26.626,-58.256c17.75,-15.749 39.838,-23.624 66.264,-23.624c35.635,0 63.462,17.351 83.482,52.051Z" style="fill:#333;fill-rule:nonzero;"/><path d="M827.614,480.669l-132.329,-0l-34.433,75.073l-50.249,-0l152.949,-328.521l147.544,328.521l-51.05,-0l-32.432,-75.073Zm-19.018,-43.843l-45.845,-105.103l-48.047,105.103l93.892,-0Z" style="fill:#333;fill-rule:nonzero;"/><g><circle cx="328.209" cy="729.129" r="53.259" style="fill:#333;"/><circle cx="688.598" cy="729.129" r="53.259" style="fill:#333;"/><path d="M116.146,601.74c20.884,32.335 74.518,38.937 74.518,38.937l628.487,-0c-0,-0 44.004,-11.059 64.703,-38.937" style="fill:none;stroke:#333;stroke-width:28px;"/></g></g></svg>